<svg width="24" height="24" viewBox="0 0 24 24" fill="none" xmlns="http://www.w3.org/2000/svg">
  <!-- Cloud infrastructure base -->
  <path d="M12 4C8.5 4 5.5 6.5 5.5 10C5.5 10.5 5.6 11 5.7 11.5C3.8 12.5 2.5 14.5 2.5 17C2.5 19.5 4.5 21.5 7 21.5H17C19.5 21.5 21.5 19.5 21.5 17C21.5 14.5 20.2 12.5 18.3 11.5C18.4 11 18.5 10.5 18.5 10C18.5 6.5 15.5 4 12 4Z" fill="#007ACC"/>
  
  <!-- Cost symbol ($) -->
  <path d="M12 7C13.1 7 14 7.9 14 9C14 10.1 13.1 11 12 11C10.9 11 10 10.1 10 9C10 7.9 10.9 7 12 7ZM12 13C13.1 13 14 13.9 14 15C14 16.1 13.1 17 12 17C10.9 17 10 16.1 10 15C10 13.9 10.9 13 12 13Z" fill="white"/>
  
  <!-- Infrastructure elements -->
  <circle cx="8" cy="14" r="1" fill="#FFD700"/>
  <circle cx="16" cy="14" r="1" fill="#FFD700"/>
  <circle cx="12" cy="18" r="1" fill="#FFD700"/>
  
  <!-- Connection lines -->
  <path d="M9 14L15 14" stroke="#FFD700" stroke-width="0.5"/>
  <path d="M12 15L12 17" stroke="#FFD700" stroke-width="0.5"/>
</svg>
